<?xml version="1.0" standalone="no"?>
<!DOCTYPE svg PUBLIC "-//W3C//DTD SVG 20010904//EN"
 "http://www.w3.org/TR/2001/REC-SVG-20010904/DTD/svg10.dtd">
<svg version="1.0" xmlns="http://www.w3.org/2000/svg"
 width="548.000000pt" height="548.000000pt" viewBox="0 0 548.000000 548.000000"
 preserveAspectRatio="xMidYMid meet">
<metadata>
Created by potrace 1.14, written by Peter Selinger 2001-2017
</metadata>
<g transform="translate(0.000000,548.000000) scale(0.100000,-0.100000)"
fill="#000000" stroke="none">
<path d="M2630 5473 c-32 -12 -71 -46 -85 -74 -20 -37 -27 -107 -16 -147 6
-21 6 -32 -2 -35 -12 -4 10 -98 27 -109 5 -3 11 -16 13 -28 2 -11 12 -38 23
-60 23 -45 24 -60 9 -94 -9 -19 -34 -34 -105 -61 -52 -20 -94 -41 -94 -46 0
-17 116 -99 170 -121 36 -13 84 -22 137 -24 125 -5 218 29 308 111 l39 37 -69
29 c-38 16 -75 29 -83 29 -7 0 -24 11 -37 25 -31 30 -32 72 -5 122 11 21 20
45 20 54 0 9 6 22 14 28 14 12 32 78 26 96 -2 6 -4 40 -5 78 0 58 -4 71 -25
91 -14 14 -36 37 -50 52 -14 15 -39 33 -57 41 -32 13 -124 17 -153 6z"/>
<path d="M2701 4346 c-12 -12 -21 -31 -21 -42 0 -26 27 -64 46 -64 8 0 14 -4
14 -10 0 -5 -4 -10 -10 -10 -19 0 -50 -40 -50 -64 0 -53 66 -82 105 -46 38 36
25 88 -29 115 -8 4 -8 6 0 10 32 16 48 36 50 63 4 58 -66 90 -105 48z"/>
<path d="M735 4318 c-37 -13 -84 -55 -97 -88 -12 -27 -19 -199 -9 -215 3 -5 7
-19 8 -29 2 -11 9 -26 15 -34 7 -8 13 -20 14 -28 1 -8 12 -33 23 -55 41 -78
21 -115 -83 -154 -117 -44 -114 -41 -71 -85 43 -44 143 -96 201 -106 146 -24
285 16 387 112 34 32 35 31 -81 76 -65 24 -86 37 -94 57 -14 34 -12 66 6 94 7
12 19 39 26 60 6 20 15 37 19 37 12 0 30 90 19 96 -6 4 -7 28 -4 55 3 26 2 58
-3 71 -11 29 -88 112 -119 128 -31 15 -120 20 -157 8z"/>
<path d="M4477 4318 c-43 -11 -106 -78 -108 -115 -1 -13 -2 -33 -3 -45 -1 -13
1 -37 5 -55 4 -17 2 -36 -3 -41 -10 -10 4 -69 23 -102 5 -8 12 -22 15 -30 3
-8 14 -34 25 -58 39 -87 22 -117 -95 -161 -47 -18 -88 -36 -91 -41 -8 -13 80
-85 139 -113 120 -57 248 -56 371 3 64 31 142 98 128 110 -4 4 -35 17 -68 30
-111 40 -124 49 -131 87 -5 26 -1 46 15 78 11 23 21 48 21 55 0 8 6 21 13 29
18 22 38 92 29 105 -4 6 -7 41 -7 77 0 65 0 66 -50 116 -27 28 -60 56 -72 62
-31 16 -110 20 -156 9z"/>
<path d="M2705 4059 c-44 -35 -22 -109 34 -109 56 0 88 57 54 98 -25 31 -57
35 -88 11z"/>
<path d="M2700 3910 c-36 -36 -19 -92 33 -105 20 -5 32 -1 51 19 32 31 33 59
4 86 -28 25 -62 26 -88 0z"/>
<path d="M2730 3783 c-48 -18 -63 -60 -34 -101 19 -28 67 -29 94 -2 27 27 25
56 -5 85 -25 26 -30 27 -55 18z"/>
<path d="M2700 3620 c-26 -26 -25 -64 2 -89 41 -39 110 -4 104 52 -7 55 -67
76 -106 37z"/>
<path d="M4010 3480 c-11 -11 -20 -31 -20 -45 0 -29 32 -65 59 -65 26 0 71 38
71 59 0 29 -39 71 -66 71 -13 0 -33 -9 -44 -20z"/>
<path d="M1340 3470 c-25 -25 -25 -51 -2 -78 27 -33 66 -38 91 -11 59 63 -28
150 -89 89z"/>
<path d="M3910 3421 c-70 -20 -53 -121 20 -121 55 0 79 66 40 108 -22 24 -22
24 -60 13z"/>
<path d="M1470 3400 c-42 -42 -13 -110 46 -110 23 0 64 42 64 65 0 7 -9 24
-21 39 -25 31 -61 34 -89 6z"/>
<path d="M3790 3352 c-28 -9 -50 -35 -50 -61 0 -32 8 -44 37 -60 30 -16 78 8
87 44 11 44 -33 90 -74 77z"/>
<path d="M1606 3338 c-38 -21 -39 -85 -2 -110 38 -26 96 7 96 53 0 49 -52 80
-94 57z"/>
<path d="M3636 3265 c-36 -37 -23 -95 25 -110 29 -9 73 24 77 58 6 51 -66 88
-102 52z"/>
<path d="M1716 3248 c-31 -44 -12 -88 43 -101 27 -7 71 31 71 60 0 35 -29 63
-65 63 -24 0 -39 -7 -49 -22z"/>
<path d="M2601 3194 c-139 -37 -262 -148 -315 -284 -25 -63 -28 -76 -32 -156
-9 -204 116 -391 310 -463 102 -38 283 -30 370 17 176 95 263 239 261 432 -1
111 -19 172 -74 257 -110 170 -322 250 -520 197z m149 -143 c0 -35 3 -39 30
-44 64 -13 108 -63 117 -134 3 -23 0 -33 -9 -34 -7 -1 -25 -2 -40 -3 -34 -3
-41 2 -53 39 -21 60 -93 64 -114 5 -15 -44 6 -71 89 -112 82 -40 117 -75 126
-125 16 -83 -26 -153 -102 -172 -38 -10 -45 -15 -44 -34 4 -40 0 -47 -23 -47
-20 0 -24 5 -25 30 -1 39 -9 50 -34 50 -49 0 -117 85 -114 143 1 19 7 22 49
22 26 1 47 -3 47 -7 0 -4 0 -10 0 -13 -1 -18 33 -65 48 -67 9 0 24 -2 32 -3
28 -2 60 18 67 44 10 39 -17 73 -87 109 -76 39 -96 56 -118 97 -29 56 -10 151
37 184 15 11 38 22 52 26 21 5 25 12 23 38 -3 39 -1 42 25 44 18 2 21 -4 21
-36z"/>
<path d="M3506 3187 c-28 -28 -25 -70 7 -92 65 -45 137 36 82 91 -30 30 -59
31 -89 1z"/>
<path d="M1845 3180 c-36 -40 -7 -110 45 -110 10 0 28 8 40 18 44 36 17 112
-40 112 -15 0 -35 -9 -45 -20z"/>
<path d="M3385 3119 c-30 -25 -33 -61 -5 -89 39 -39 110 -11 110 43 0 51 -63
78 -105 46z"/>
<path d="M1990 3123 c-42 -17 -51 -67 -20 -101 54 -57 144 17 97 80 -15 19
-55 30 -77 21z"/>
<path d="M2005 2342 c-24 -5 -54 -38 -51 -55 11 -62 46 -83 94 -60 26 13 32
21 32 47 0 17 -4 36 -8 42 -11 18 -45 31 -67 26z"/>
<path d="M3404 2315 c-27 -27 -26 -54 4 -87 34 -39 102 -10 102 43 0 33 -19
55 -53 63 -21 5 -33 1 -53 -19z"/>
<path d="M1846 2248 c-22 -32 -20 -61 8 -87 44 -41 115 3 100 63 -12 48 -81
63 -108 24z"/>
<path d="M3535 2248 c-45 -35 -27 -94 32 -112 26 -8 73 31 73 61 0 54 -63 84
-105 51z"/>
<path d="M1721 2174 c-12 -15 -21 -32 -21 -39 0 -24 41 -65 66 -65 31 0 64 33
64 65 0 32 -33 65 -64 65 -15 0 -33 -11 -45 -26z"/>
<path d="M3657 2173 c-43 -49 -4 -123 57 -107 29 7 54 41 50 67 -7 51 -75 75
-107 40z"/>
<path d="M1620 2122 c-23 -8 -39 -34 -40 -64 0 -32 -3 -33 -34 -13 -40 26 -96
-9 -96 -60 0 -26 50 -66 74 -59 35 11 56 35 56 66 0 28 13 37 25 18 9 -14 57
-12 78 4 10 8 20 25 22 39 8 42 -45 85 -85 69z"/>
<path d="M3786 2099 c-32 -25 -34 -61 -4 -89 28 -25 62 -26 88 0 26 26 25 60
0 88 -26 28 -50 28 -84 1z"/>
<path d="M4534 2051 c-64 -29 -88 -76 -89 -180 -2 -87 11 -160 29 -173 5 -3
11 -16 13 -28 2 -11 12 -39 24 -62 15 -29 19 -50 14 -74 -7 -38 -26 -51 -133
-90 -35 -13 -67 -26 -70 -29 -9 -8 37 -52 90 -86 105 -68 261 -88 371 -48 57
21 134 68 166 103 l23 24 -28 15 c-16 7 -57 24 -92 37 -92 34 -115 82 -72 152
11 18 20 43 20 56 0 12 6 25 14 28 13 5 32 78 26 99 -2 6 -4 40 -5 76 -1 66
-2 67 -56 123 -75 78 -157 97 -245 57z"/>
<path d="M3925 2037 c-55 -29 -45 -98 17 -120 11 -4 29 3 47 19 23 19 29 31
25 52 -9 48 -50 71 -89 49z"/>
<path d="M1347 1962 c-9 -10 -17 -33 -17 -50 0 -67 88 -80 119 -18 12 25 11
31 -6 55 -25 33 -72 40 -96 13z"/>
<path d="M2676 1956 c-29 -28 -31 -38 -15 -69 16 -29 28 -37 60 -37 32 0 59
28 59 61 0 33 -19 56 -52 64 -21 5 -33 1 -52 -19z"/>
<path d="M4048 1964 c-50 -26 -44 -95 10 -115 21 -8 31 -6 51 9 65 48 10 143
-61 106z"/>
<path d="M714 1919 c-57 -28 -86 -76 -89 -148 -1 -32 1 -65 6 -72 4 -7 3 -19
-2 -25 -12 -14 6 -90 28 -115 7 -8 13 -21 13 -28 0 -6 9 -30 21 -53 22 -43 20
-97 -4 -115 -6 -6 -51 -25 -99 -44 -49 -18 -88 -36 -88 -40 0 -14 81 -79 127
-103 69 -35 128 -48 206 -47 110 2 227 51 296 125 l24 25 -29 12 c-16 6 -55
21 -87 33 -32 12 -67 30 -77 39 -26 22 -26 72 0 122 11 22 20 47 20 57 0 10 4
18 10 18 9 0 34 76 31 95 -1 6 -3 42 -4 80 -3 70 -4 71 -53 122 -27 28 -60 56
-74 64 -41 21 -132 20 -176 -2z"/>
<path d="M2676 1815 c-36 -37 -27 -88 20 -105 43 -17 84 13 84 61 0 50 -69 79
-104 44z"/>
<path d="M2687 1679 c-46 -27 -38 -103 12 -116 62 -16 107 61 62 106 -23 23
-46 26 -74 10z"/>
<path d="M2682 1533 c-41 -16 -31 -96 13 -113 44 -17 85 13 85 61 0 45 -50 71
-98 52z"/>
<path d="M2676 1376 c-29 -28 -31 -38 -15 -69 16 -29 28 -37 60 -37 32 0 59
28 59 61 0 33 -19 56 -52 64 -21 5 -33 1 -52 -19z"/>
<path d="M2676 1235 c-25 -25 -29 -54 -12 -80 9 -14 20 -25 24 -26 4 0 17 -2
29 -3 52 -6 84 72 45 107 -23 21 -66 22 -86 2z"/>
<path d="M2639 801 c-45 -14 -67 -30 -89 -66 -23 -38 -33 -123 -19 -161 4 -13
3 -26 -3 -32 -8 -8 -8 -18 0 -37 7 -14 12 -35 12 -45 0 -11 4 -20 10 -20 5 0
13 -12 16 -27 4 -16 16 -45 26 -67 14 -27 18 -49 13 -73 -7 -37 -31 -52 -157
-97 -27 -10 -48 -21 -48 -26 0 -4 16 -22 35 -38 169 -149 411 -150 575 -4 l45
40 -35 15 c-19 8 -60 25 -90 37 -92 36 -111 80 -69 159 11 22 22 47 23 55 1 8
7 20 13 27 17 22 32 85 23 100 -5 7 -7 39 -5 71 l3 59 -56 60 c-70 74 -138 95
-223 70z"/>
</g>
</svg>
